<?xml version="1.0" standalone="no"?>
<!DOCTYPE svg PUBLIC "-//W3C//DTD SVG 20010904//EN"
 "http://www.w3.org/TR/2001/REC-SVG-20010904/DTD/svg10.dtd">
<svg version="1.0" xmlns="http://www.w3.org/2000/svg"
 width="64.000000pt" height="64.000000pt" viewBox="0 0 64.000000 64.000000"
 preserveAspectRatio="xMidYMid meet">

<g transform="translate(0.000000,64.000000) scale(0.100000,-0.100000)"
fill="#ffffff" stroke="none">
<path d="M372 581 c-8 -5 -33 -6 -56 -4 -54 6 -117 -11 -154 -42 -23 -19 -37
-24 -61 -19 -27 6 -31 4 -31 -15 0 -13 6 -21 16 -21 10 0 14 -6 11 -14 -34
-87 -32 -195 4 -291 25 -68 64 -117 78 -96 5 8 0 28 -17 58 -47 84 -63 198
-40 275 14 48 30 56 64 33 l26 -17 -31 -19 c-17 -10 -33 -30 -37 -44 -10 -42
4 -94 32 -112 23 -15 28 -15 60 0 40 19 70 73 61 109 -10 37 -49 90 -85 115
l-33 22 25 16 c28 19 106 32 106 19 -1 -5 -7 -20 -15 -34 -20 -35 -18 -50 5
-50 11 0 20 3 20 8 0 4 9 22 20 40 19 31 21 32 48 18 39 -21 89 -75 106 -118
22 -52 21 -172 -3 -247 -16 -53 -17 -60 -3 -66 30 -11 52 55 59 176 4 65 1 99
-11 137 -18 54 -84 137 -116 147 -11 4 -20 15 -20 26 0 21 -8 23 -28 10z
m-124 -213 c18 -18 15 -36 -13 -64 -21 -21 -29 -23 -40 -14 -19 16 -19 41 -1
34 21 -8 32 17 13 31 -9 7 -14 15 -10 18 10 11 38 8 51 -5z"/>
<path d="M341 464 c-43 -36 -42 -75 3 -120 43 -43 87 -46 112 -9 15 22 15 32
5 67 -13 44 -51 88 -75 88 -8 0 -28 -12 -45 -26z m46 -36 c-1 -15 3 -23 13
-23 19 0 34 -35 21 -48 -16 -16 -60 9 -67 38 -5 19 -1 30 12 40 25 19 24 19
21 -7z"/>
<path d="M298 251 c-14 -16 -31 -50 -38 -75 -7 -26 -17 -49 -21 -52 -5 -3 -9
-10 -9 -16 0 -22 108 -1 168 33 31 18 59 34 61 35 2 2 -2 17 -9 34 -30 72
-109 93 -152 41z m98 -32 c16 -17 16 -22 4 -30 -24 -17 -94 -48 -98 -44 -8 8
9 23 43 39 20 10 33 21 30 27 -4 5 -18 3 -36 -6 -31 -17 -35 -14 -19 16 14 25
52 24 76 -2z"/>
</g>
</svg>
